<svg width="100%" height="100%" viewBox="0 0 16 16" xmlns="http://www.w3.org/2000/svg" version="1.1">
  <path d="M6.71,14.469c0.07,0.07 0.14,0.112 0.224,0.112c0.084,0 0.154,-0.042 0.182,-0.098l0.714,-1.218l2.366,0.882c0.042,0.014 0.112,0.028 0.154,0.028c0.112,0 0.21,-0.098 0.21,-0.21l-0.014,-1.4l2.506,-0.392c0.168,-0.028 0.238,-0.14 0.238,-0.224c-0,-0.042 -0.014,-0.084 -0.042,-0.126l-0.728,-1.19l2.016,-1.582c0.056,-0.042 0.084,-0.112 0.084,-0.182c-0,-0.084 -0.028,-0.126 -0.098,-0.168l-1.274,-0.7l0.91,-2.31c0.014,-0.042 0.028,-0.098 0.028,-0.154c-0,-0.098 -0.07,-0.182 -0.168,-0.182l-1.484,0.014l-0.434,-2.506c-0.014,-0.084 -0.098,-0.154 -0.182,-0.154c-0.042,0 -0.112,0.014 -0.168,0.042l-1.204,0.686l-1.638,-1.946c-0.056,-0.056 -0.112,-0.084 -0.182,-0.084c-0.07,0 -0.154,0.042 -0.182,0.098l-0.714,1.232l-2.38,-0.882c-0.042,-0.014 -0.098,-0.028 -0.14,-0.028c-0.098,0 -0.21,0.084 -0.21,0.182l0.014,1.428l-2.506,0.392c-0.154,0.028 -0.238,0.098 -0.238,0.21c-0,0.056 0.014,0.098 0.028,0.126l0.728,1.204l-1.974,1.554c-0.056,0.042 -0.112,0.126 -0.112,0.196c-0,0.07 0.042,0.154 0.084,0.182l1.274,0.7l-0.896,2.268c-0.014,0.042 -0.028,0.098 -0.028,0.14c-0,0.112 0.084,0.238 0.196,0.238l1.456,-0.014l0.42,2.506c0.014,0.084 0.126,0.168 0.196,0.168c0.042,0 0.084,-0.014 0.112,-0.028l1.26,-0.714l1.596,1.904Zm-2.688,-1.708l-0.406,-2.324c-0.014,-0.112 -0.084,-0.168 -0.196,-0.168l-1.344,0.014l0.826,-2.142c0.014,-0.042 0.028,-0.098 0.028,-0.154c-0,-0.07 -0.028,-0.126 -0.084,-0.154l-1.176,-0.658l1.834,-1.456c0.07,-0.056 0.126,-0.126 0.126,-0.182c-0,-0.042 -0.014,-0.084 -0.042,-0.126l-0.672,-1.106l2.324,-0.378c0.14,-0.014 0.21,-0.056 0.252,-0.14l-0.014,-1.372l2.198,0.798c0.056,0.014 0.126,0.028 0.182,0.028c0.042,0 0.112,-0.042 0.14,-0.084l0.672,-1.134l1.512,1.778c0.056,0.07 0.126,0.112 0.21,0.112c0.056,0 0.112,-0.028 0.154,-0.056l1.092,-0.616l0.378,2.24c0.028,0.14 0.084,0.21 0.21,0.252l1.358,-0.014l-0.826,2.142c-0.014,0.042 -0.042,0.112 -0.042,0.168c-0,0.056 0.056,0.112 0.098,0.14l1.162,0.658l-1.806,1.442c-0.07,0.056 -0.126,0.14 -0.126,0.21c-0,0.028 -0,0.07 0.014,0.098l0.672,1.12l-2.38,0.392c-0.112,0.014 -0.182,0.098 -0.182,0.21l-0,1.288l-2.198,-0.812c-0.042,-0.014 -0.098,-0.028 -0.154,-0.028c-0.07,0 -0.14,0.028 -0.168,0.084l-0.672,1.148l-1.484,-1.764c-0.07,-0.084 -0.154,-0.126 -0.21,-0.126c-0.042,0 -0.098,0.014 -0.14,0.042l-1.12,0.63Zm2.17,-6.468c-0,-0.252 -0.182,-0.364 -0.392,-0.364c-0.224,0 -0.406,0.112 -0.406,0.364c-0,0.238 0.182,0.434 0.406,0.434c0.21,0 0.392,-0.196 0.392,-0.434Zm3.948,0.014c-0,-0.252 -0.182,-0.378 -0.406,-0.378c-0.224,0 -0.392,0.126 -0.392,0.378c-0,0.224 0.168,0.42 0.392,0.42c0.224,0 0.406,-0.196 0.406,-0.42Zm-2.31,5.782c2.408,0 4.228,-1.68 4.228,-4.088c-0,-2.408 -1.82,-4.088 -4.228,-4.088c-2.422,0 -4.228,1.68 -4.228,4.088c-0,2.408 1.806,4.088 4.228,4.088Zm-1.176,-5.726c-0,0.49 -0.336,0.756 -0.84,0.756c-0.504,0 -0.84,-0.266 -0.84,-0.756c-0,-0.504 0.336,-0.84 0.84,-0.84c0.504,0 0.84,0.336 0.84,0.84Zm3.934,0c-0,0.49 -0.336,0.756 -0.84,0.756c-0.49,0 -0.826,-0.266 -0.826,-0.756c-0,-0.504 0.336,-0.84 0.826,-0.84c0.504,0 0.84,0.336 0.84,0.84Zm-3.752,1.722c-0,-0.14 0.112,-0.252 0.238,-0.252c0.406,-0.014 0.938,-0.112 1.344,-0.182c0.14,-0.028 0.28,0.07 0.28,0.196c-0,0.14 -0.07,0.252 -0.196,0.28c-0.406,0.084 -1.036,0.182 -1.442,0.196c-0.126,0 -0.224,-0.112 -0.224,-0.238Z" />
  <path d="M6.71,14.469c0.07,0.07 0.14,0.112 0.224,0.112c0.084,0 0.154,-0.042 0.182,-0.098l0.714,-1.218l2.366,0.882c0.042,0.014 0.112,0.028 0.154,0.028c0.112,0 0.21,-0.098 0.21,-0.21l-0.014,-1.4l2.506,-0.392c0.168,-0.028 0.238,-0.14 0.238,-0.224c-0,-0.042 -0.014,-0.084 -0.042,-0.126l-0.728,-1.19l2.016,-1.582c0.056,-0.042 0.084,-0.112 0.084,-0.182c-0,-0.084 -0.028,-0.126 -0.098,-0.168l-1.274,-0.7l0.91,-2.31c0.014,-0.042 0.028,-0.098 0.028,-0.154c-0,-0.098 -0.07,-0.182 -0.168,-0.182l-1.484,0.014l-0.434,-2.506c-0.014,-0.084 -0.098,-0.154 -0.182,-0.154c-0.042,0 -0.112,0.014 -0.168,0.042l-1.204,0.686l-1.638,-1.946c-0.056,-0.056 -0.112,-0.084 -0.182,-0.084c-0.07,0 -0.154,0.042 -0.182,0.098l-0.714,1.232l-2.38,-0.882c-0.042,-0.014 -0.098,-0.028 -0.14,-0.028c-0.098,0 -0.21,0.084 -0.21,0.182l0.014,1.428l-2.506,0.392c-0.154,0.028 -0.238,0.098 -0.238,0.21c-0,0.056 0.014,0.098 0.028,0.126l0.728,1.204l-1.974,1.554c-0.056,0.042 -0.112,0.126 -0.112,0.196c-0,0.07 0.042,0.154 0.084,0.182l1.274,0.7l-0.896,2.268c-0.014,0.042 -0.028,0.098 -0.028,0.14c-0,0.112 0.084,0.238 0.196,0.238l1.456,-0.014l0.42,2.506c0.014,0.084 0.126,0.168 0.196,0.168c0.042,0 0.084,-0.014 0.112,-0.028l1.26,-0.714l1.596,1.904Zm-2.688,-1.708l-0.406,-2.324c-0.014,-0.112 -0.084,-0.168 -0.196,-0.168l-1.344,0.014l0.826,-2.142c0.014,-0.042 0.028,-0.098 0.028,-0.154c-0,-0.07 -0.028,-0.126 -0.084,-0.154l-1.176,-0.658l1.834,-1.456c0.07,-0.056 0.126,-0.126 0.126,-0.182c-0,-0.042 -0.014,-0.084 -0.042,-0.126l-0.672,-1.106l2.324,-0.378c0.14,-0.014 0.21,-0.056 0.252,-0.14l-0.014,-1.372l2.198,0.798c0.056,0.014 0.126,0.028 0.182,0.028c0.042,0 0.112,-0.042 0.14,-0.084l0.672,-1.134l1.512,1.778c0.056,0.07 0.126,0.112 0.21,0.112c0.056,0 0.112,-0.028 0.154,-0.056l1.092,-0.616l0.378,2.24c0.028,0.14 0.084,0.21 0.21,0.252l1.358,-0.014l-0.826,2.142c-0.014,0.042 -0.042,0.112 -0.042,0.168c-0,0.056 0.056,0.112 0.098,0.14l1.162,0.658l-1.806,1.442c-0.07,0.056 -0.126,0.14 -0.126,0.21c-0,0.028 -0,0.07 0.014,0.098l0.672,1.12l-2.38,0.392c-0.112,0.014 -0.182,0.098 -0.182,0.21l-0,1.288l-2.198,-0.812c-0.042,-0.014 -0.098,-0.028 -0.154,-0.028c-0.07,0 -0.14,0.028 -0.168,0.084l-0.672,1.148l-1.484,-1.764c-0.07,-0.084 -0.154,-0.126 -0.21,-0.126c-0.042,0 -0.098,0.014 -0.14,0.042l-1.12,0.63Z" />
</svg>
